# xmcd
#
# Track frame offsets: 
#        150
#        23470
#        41807
#        63819
#        82042
#        94922
#        113410
#        136705
#        157180
#        174850
#        197400
#        222143
#        240411
#        251696
#        268176
#        279726
#        295751
#        307091
#        309343
#        337445
#
# Disc length: 4767 seconds
#
# Revision: 1
# Processed by: cddbd v1.5.2PL0 Copyright (c) Steve Scherf et al.
# Submitted via: ExactAudioCopy v1.3
#
DISCID=1c129d14
DTITLE=Lightning Hopkins - Akella Presents - Greatest Bluesmen - vol. 
DTITLE=02  CD2
DYEAR=2017
DGENRE=Blues
TTITLE0=I Was Standing On 75 Highway
TTITLE1=Got To Move Your Baby
TTITLE2=Walkin' This Road By Myself
TTITLE3=I'm Wit' It
TTITLE4=T Model Blues
TTITLE5=Down There Baby
TTITLE6=I Was Down On Dowling Street
TTITLE7=Dc-7
TTITLE8=The Howling Wolf
TTITLE9=You Better Watch Yourself
TTITLE10=Ida Mae
TTITLE11=Have You Ever Been Mistreated
TTITLE12=Meet Me In The Bottom
TTITLE13=Come Go Home With Mes
TTITLE14=Annie's Boogie
TTITLE15=Rock Me Baby
TTITLE16=Ain't It Crazy
TTITLE17=Howlin' Wolf
TTITLE18=Y'all Escuse Mes
TTITLE19=My Family  (Interview December 1964)
EXTD=
EXTT0=
EXTT1=
EXTT2=
EXTT3=
EXTT4=
EXTT5=
EXTT6=
EXTT7=
EXTT8=
EXTT9=
EXTT10=
EXTT11=
EXTT12=
EXTT13=
EXTT14=
EXTT15=
EXTT16=
EXTT17=
EXTT18=
EXTT19=
PLAYORDER=
